# xmcd
#
# Track frame offsets: 
#        150
#        19325
#        36713
#        56735
#        74244
#        93751
#        110316
#        127782
#        134924
#        154208
#        170422
#        188869
#        206070
#        225253
#        243549
#
# Disc length: 3466 seconds
#
# Revision: 0
# Processed by: cddbd v1.5.2PL0 Copyright (c) Steve Scherf et al.
# Submitted via: ExactAudioCopy v0.95a5
#
DISCID=dd0d880f
DTITLE=Keyshia Cole - Just Like You
DYEAR=2007
DGENRE=R&B
TTITLE0=Let It Go (feat. Missy Elliott and Lil' Kim)
TTITLE1=Didn't I Tell You (feat. Too $hort)
TTITLE2=Fallin' Out
TTITLE3=Give Me More
TTITLE4=I Remember
TTITLE5=Shoulda Let You Go (introducing Amina)
TTITLE6=Heaven Sent
TTITLE7=Same Thing (Interlude)
TTITLE8=Got To Get My Heart Back
TTITLE9=Was It Worth It?
TTITLE10=Just Like You
TTITLE11=Losing You (feat. Anthony Hamilton)
TTITLE12=Last Night (feat. Diddy)
TTITLE13=Work It Out
TTITLE14=Let It Go (Remix) feat.T.I., Missy Elliott and Young Dro
EXTD=
EXTT0=
EXTT1=
EXTT2=
EXTT3=
EXTT4=
EXTT5=
EXTT6=
EXTT7=
EXTT8=
EXTT9=
EXTT10=
EXTT11=
EXTT12=
EXTT13=
EXTT14=
PLAYORDER=
